<mxfile host="app.diagrams.net" modified="2023-12-16T05:53:19.092Z" agent="Mozilla/5.0 (Windows NT 10.0; Win64; x64) AppleWebKit/537.36 (KHTML, like Gecko) Chrome/120.0.0.0 Safari/537.36" etag="BRZBBDnRNgkjCFLar4li" version="22.1.11" type="device" pages="5">
  <diagram id="wyq10jwMdcH4iOBFJnsO" name="usecase">
    <mxGraphModel dx="2261" dy="790" grid="1" gridSize="10" guides="1" tooltips="1" connect="1" arrows="1" fold="1" page="1" pageScale="1" pageWidth="827" pageHeight="1169" math="0" shadow="0">
      <root>
        <mxCell id="0" />
        <mxCell id="1" parent="0" />
        <mxCell id="R3nn2ONNJOOhXqBB5MOd-1" style="edgeStyle=orthogonalEdgeStyle;rounded=0;orthogonalLoop=1;jettySize=auto;html=1;entryX=0;entryY=0.5;entryDx=0;entryDy=0;" parent="1" source="R3nn2ONNJOOhXqBB5MOd-4" target="R3nn2ONNJOOhXqBB5MOd-5" edge="1">
          <mxGeometry relative="1" as="geometry">
            <Array as="points">
              <mxPoint x="-70" y="350" />
              <mxPoint x="-70" y="205" />
            </Array>
          </mxGeometry>
        </mxCell>
        <mxCell id="R3nn2ONNJOOhXqBB5MOd-2" style="edgeStyle=orthogonalEdgeStyle;rounded=0;orthogonalLoop=1;jettySize=auto;html=1;" parent="1" source="R3nn2ONNJOOhXqBB5MOd-4" edge="1">
          <mxGeometry relative="1" as="geometry">
            <mxPoint x="-70" y="350" as="targetPoint" />
          </mxGeometry>
        </mxCell>
        <mxCell id="R3nn2ONNJOOhXqBB5MOd-3" style="edgeStyle=orthogonalEdgeStyle;rounded=0;orthogonalLoop=1;jettySize=auto;html=1;" parent="1" edge="1">
          <mxGeometry relative="1" as="geometry">
            <mxPoint x="-150" y="350.0588235294117" as="sourcePoint" />
            <mxPoint x="10" y="945" as="targetPoint" />
            <Array as="points">
              <mxPoint x="-70" y="350" />
              <mxPoint x="-70" y="945" />
            </Array>
          </mxGeometry>
        </mxCell>
        <mxCell id="HiqD-tRMxYMdT15kLIhL-1" style="edgeStyle=orthogonalEdgeStyle;rounded=0;orthogonalLoop=1;jettySize=auto;html=1;entryX=0;entryY=0.5;entryDx=0;entryDy=0;" parent="1" source="R3nn2ONNJOOhXqBB5MOd-4" target="StKYU5p8G0ilEQdymsjH-1" edge="1">
          <mxGeometry relative="1" as="geometry" />
        </mxCell>
        <mxCell id="vf-qILHcZuCfZEPoGiLg-6" style="edgeStyle=orthogonalEdgeStyle;rounded=0;orthogonalLoop=1;jettySize=auto;html=1;" parent="1" source="R3nn2ONNJOOhXqBB5MOd-4" target="R3nn2ONNJOOhXqBB5MOd-14" edge="1">
          <mxGeometry relative="1" as="geometry">
            <Array as="points">
              <mxPoint x="-70" y="350" />
              <mxPoint x="-70" y="550" />
              <mxPoint x="650" y="550" />
            </Array>
          </mxGeometry>
        </mxCell>
        <mxCell id="vf-qILHcZuCfZEPoGiLg-7" style="edgeStyle=orthogonalEdgeStyle;rounded=0;orthogonalLoop=1;jettySize=auto;html=1;entryX=0.5;entryY=0;entryDx=0;entryDy=0;" parent="1" source="R3nn2ONNJOOhXqBB5MOd-4" target="StKYU5p8G0ilEQdymsjH-8" edge="1">
          <mxGeometry relative="1" as="geometry">
            <Array as="points">
              <mxPoint x="-70" y="350" />
              <mxPoint x="-70" y="550" />
              <mxPoint x="818" y="550" />
            </Array>
          </mxGeometry>
        </mxCell>
        <mxCell id="R3nn2ONNJOOhXqBB5MOd-4" value="Пользователь" style="shape=umlActor;verticalLabelPosition=bottom;verticalAlign=top;html=1;outlineConnect=0;" parent="1" vertex="1">
          <mxGeometry x="-190" y="320" width="30" height="60" as="geometry" />
        </mxCell>
        <mxCell id="R3nn2ONNJOOhXqBB5MOd-5" value="Использовать настройки" style="ellipse;whiteSpace=wrap;html=1;" parent="1" vertex="1">
          <mxGeometry x="20" y="150" width="120" height="110" as="geometry" />
        </mxCell>
        <mxCell id="R3nn2ONNJOOhXqBB5MOd-11" value="Выбрать ПО для проверки версии" style="ellipse;whiteSpace=wrap;html=1;aspect=fixed;" parent="1" vertex="1">
          <mxGeometry x="15" y="890" width="130" height="130" as="geometry" />
        </mxCell>
        <mxCell id="R3nn2ONNJOOhXqBB5MOd-12" value="Проверка версий выбранных ПО&amp;nbsp;" style="ellipse;whiteSpace=wrap;html=1;aspect=fixed;" parent="1" vertex="1">
          <mxGeometry x="220" y="890" width="120" height="120" as="geometry" />
        </mxCell>
        <mxCell id="R3nn2ONNJOOhXqBB5MOd-13" value="Вывод списка ПО для обновления" style="ellipse;whiteSpace=wrap;html=1;aspect=fixed;" parent="1" vertex="1">
          <mxGeometry x="390" y="780" width="115" height="115" as="geometry" />
        </mxCell>
        <mxCell id="dZX4U7V9dxP1o9qTEPKi-1" value="" style="edgeStyle=orthogonalEdgeStyle;rounded=0;orthogonalLoop=1;jettySize=auto;html=1;" parent="1" source="R3nn2ONNJOOhXqBB5MOd-14" target="StKYU5p8G0ilEQdymsjH-8" edge="1">
          <mxGeometry relative="1" as="geometry" />
        </mxCell>
        <mxCell id="R3nn2ONNJOOhXqBB5MOd-14" value="Скачать новую версию ПО" style="ellipse;whiteSpace=wrap;html=1;aspect=fixed;" parent="1" vertex="1">
          <mxGeometry x="600" y="722.5" width="100" height="100" as="geometry" />
        </mxCell>
        <mxCell id="R3nn2ONNJOOhXqBB5MOd-15" value="Перевод на официальный сайт продукта" style="ellipse;whiteSpace=wrap;html=1;aspect=fixed;" parent="1" vertex="1">
          <mxGeometry x="490" y="612.5" width="110" height="110" as="geometry" />
        </mxCell>
        <mxCell id="R3nn2ONNJOOhXqBB5MOd-86" value="include" style="html=1;verticalAlign=bottom;endArrow=open;dashed=1;endSize=8;curved=0;rounded=0;entryX=0;entryY=1;entryDx=0;entryDy=0;exitX=0.968;exitY=0.328;exitDx=0;exitDy=0;exitPerimeter=0;" parent="1" target="R3nn2ONNJOOhXqBB5MOd-13" edge="1">
          <mxGeometry relative="1" as="geometry">
            <mxPoint x="334.5" y="902" as="sourcePoint" />
            <mxPoint x="445.5" y="890" as="targetPoint" />
            <Array as="points" />
          </mxGeometry>
        </mxCell>
        <mxCell id="R3nn2ONNJOOhXqBB5MOd-87" value="include" style="html=1;verticalAlign=bottom;endArrow=open;dashed=1;endSize=8;curved=0;rounded=0;entryX=0.007;entryY=0.683;entryDx=0;entryDy=0;exitX=0.968;exitY=0.328;exitDx=0;exitDy=0;exitPerimeter=0;entryPerimeter=0;" parent="1" target="R3nn2ONNJOOhXqBB5MOd-12" edge="1">
          <mxGeometry relative="1" as="geometry">
            <mxPoint x="140" y="972" as="sourcePoint" />
            <mxPoint x="251" y="960" as="targetPoint" />
            <Array as="points" />
          </mxGeometry>
        </mxCell>
        <mxCell id="R3nn2ONNJOOhXqBB5MOd-100" value="include" style="html=1;verticalAlign=bottom;endArrow=open;dashed=1;endSize=8;curved=0;rounded=0;exitX=0.968;exitY=0.328;exitDx=0;exitDy=0;exitPerimeter=0;entryX=0;entryY=1;entryDx=0;entryDy=0;" parent="1" target="R3nn2ONNJOOhXqBB5MOd-15" edge="1">
          <mxGeometry relative="1" as="geometry">
            <mxPoint x="467" y="780" as="sourcePoint" />
            <mxPoint x="480" y="700" as="targetPoint" />
            <Array as="points" />
          </mxGeometry>
        </mxCell>
        <mxCell id="StKYU5p8G0ilEQdymsjH-1" value="Активировать ключ" style="ellipse;whiteSpace=wrap;html=1;aspect=fixed;" parent="1" vertex="1">
          <mxGeometry x="20" y="360" width="120" height="120" as="geometry" />
        </mxCell>
        <mxCell id="StKYU5p8G0ilEQdymsjH-7" value="include" style="html=1;verticalAlign=bottom;endArrow=open;dashed=1;endSize=8;curved=0;rounded=0;exitX=0.909;exitY=0.782;exitDx=0;exitDy=0;exitPerimeter=0;" parent="1" source="R3nn2ONNJOOhXqBB5MOd-15" target="R3nn2ONNJOOhXqBB5MOd-14" edge="1">
          <mxGeometry relative="1" as="geometry">
            <mxPoint x="570" y="680" as="sourcePoint" />
            <mxPoint x="600" y="720" as="targetPoint" />
            <Array as="points" />
          </mxGeometry>
        </mxCell>
        <mxCell id="StKYU5p8G0ilEQdymsjH-8" value="Установить актуальную версию ПО" style="ellipse;whiteSpace=wrap;html=1;aspect=fixed;" parent="1" vertex="1">
          <mxGeometry x="760" y="715" width="115" height="115" as="geometry" />
        </mxCell>
        <mxCell id="StKYU5p8G0ilEQdymsjH-9" value="include" style="html=1;verticalAlign=bottom;endArrow=open;dashed=1;endSize=8;curved=0;rounded=0;entryX=0;entryY=0.5;entryDx=0;entryDy=0;exitX=1;exitY=0.5;exitDx=0;exitDy=0;" parent="1" source="R3nn2ONNJOOhXqBB5MOd-14" target="StKYU5p8G0ilEQdymsjH-8" edge="1">
          <mxGeometry relative="1" as="geometry">
            <mxPoint x="710" y="780" as="sourcePoint" />
            <mxPoint x="519" y="727" as="targetPoint" />
            <Array as="points" />
          </mxGeometry>
        </mxCell>
        <mxCell id="vf-qILHcZuCfZEPoGiLg-2" style="edgeStyle=orthogonalEdgeStyle;rounded=0;orthogonalLoop=1;jettySize=auto;html=1;exitX=0.5;exitY=0.5;exitDx=0;exitDy=0;exitPerimeter=0;" parent="1" source="vf-qILHcZuCfZEPoGiLg-1" target="R3nn2ONNJOOhXqBB5MOd-12" edge="1">
          <mxGeometry relative="1" as="geometry">
            <Array as="points">
              <mxPoint x="390" y="1000" />
              <mxPoint x="390" y="1000" />
            </Array>
          </mxGeometry>
        </mxCell>
        <mxCell id="vf-qILHcZuCfZEPoGiLg-3" style="edgeStyle=orthogonalEdgeStyle;rounded=0;orthogonalLoop=1;jettySize=auto;html=1;" parent="1" source="vf-qILHcZuCfZEPoGiLg-1" target="R3nn2ONNJOOhXqBB5MOd-13" edge="1">
          <mxGeometry relative="1" as="geometry" />
        </mxCell>
        <mxCell id="YC3LDhJm61_88W43cKcc-3" style="edgeStyle=orthogonalEdgeStyle;rounded=0;orthogonalLoop=1;jettySize=auto;html=1;entryX=0.5;entryY=1;entryDx=0;entryDy=0;" parent="1" source="vf-qILHcZuCfZEPoGiLg-1" target="YC3LDhJm61_88W43cKcc-1" edge="1">
          <mxGeometry relative="1" as="geometry" />
        </mxCell>
        <mxCell id="vf-qILHcZuCfZEPoGiLg-1" value="Агент&lt;br&gt;" style="shape=umlActor;verticalLabelPosition=bottom;verticalAlign=top;html=1;outlineConnect=0;" parent="1" vertex="1">
          <mxGeometry x="520" y="970" width="30" height="60" as="geometry" />
        </mxCell>
        <mxCell id="vf-qILHcZuCfZEPoGiLg-4" style="edgeStyle=orthogonalEdgeStyle;rounded=0;orthogonalLoop=1;jettySize=auto;html=1;entryX=0.436;entryY=1.014;entryDx=0;entryDy=0;entryPerimeter=0;" parent="1" edge="1">
          <mxGeometry relative="1" as="geometry">
            <mxPoint x="533.5" y="970" as="sourcePoint" />
            <mxPoint x="536.46" y="724.04" as="targetPoint" />
            <Array as="points">
              <mxPoint x="534" y="971" />
              <mxPoint x="536" y="971" />
            </Array>
          </mxGeometry>
        </mxCell>
        <mxCell id="vf-qILHcZuCfZEPoGiLg-9" style="edgeStyle=orthogonalEdgeStyle;rounded=0;orthogonalLoop=1;jettySize=auto;html=1;entryX=0;entryY=0.5;entryDx=0;entryDy=0;" parent="1" source="vf-qILHcZuCfZEPoGiLg-15" target="vf-qILHcZuCfZEPoGiLg-16" edge="1">
          <mxGeometry relative="1" as="geometry">
            <Array as="points">
              <mxPoint x="1160" y="410" />
              <mxPoint x="1160" y="265" />
            </Array>
          </mxGeometry>
        </mxCell>
        <mxCell id="vf-qILHcZuCfZEPoGiLg-10" style="edgeStyle=orthogonalEdgeStyle;rounded=0;orthogonalLoop=1;jettySize=auto;html=1;" parent="1" source="vf-qILHcZuCfZEPoGiLg-15" edge="1">
          <mxGeometry relative="1" as="geometry">
            <mxPoint x="1160" y="410" as="targetPoint" />
          </mxGeometry>
        </mxCell>
        <mxCell id="vf-qILHcZuCfZEPoGiLg-12" style="edgeStyle=orthogonalEdgeStyle;rounded=0;orthogonalLoop=1;jettySize=auto;html=1;entryX=0;entryY=0.5;entryDx=0;entryDy=0;" parent="1" source="vf-qILHcZuCfZEPoGiLg-15" target="vf-qILHcZuCfZEPoGiLg-26" edge="1">
          <mxGeometry relative="1" as="geometry" />
        </mxCell>
        <mxCell id="vf-qILHcZuCfZEPoGiLg-13" style="edgeStyle=orthogonalEdgeStyle;rounded=0;orthogonalLoop=1;jettySize=auto;html=1;" parent="1" source="vf-qILHcZuCfZEPoGiLg-15" target="vf-qILHcZuCfZEPoGiLg-21" edge="1">
          <mxGeometry relative="1" as="geometry">
            <Array as="points">
              <mxPoint x="1160" y="410" />
              <mxPoint x="1160" y="610" />
              <mxPoint x="1880" y="610" />
            </Array>
          </mxGeometry>
        </mxCell>
        <mxCell id="vf-qILHcZuCfZEPoGiLg-14" style="edgeStyle=orthogonalEdgeStyle;rounded=0;orthogonalLoop=1;jettySize=auto;html=1;entryX=0.5;entryY=0;entryDx=0;entryDy=0;" parent="1" source="vf-qILHcZuCfZEPoGiLg-15" target="vf-qILHcZuCfZEPoGiLg-28" edge="1">
          <mxGeometry relative="1" as="geometry">
            <Array as="points">
              <mxPoint x="1160" y="410" />
              <mxPoint x="1160" y="610" />
              <mxPoint x="2048" y="610" />
            </Array>
          </mxGeometry>
        </mxCell>
        <mxCell id="vf-qILHcZuCfZEPoGiLg-15" value="Пользователь" style="shape=umlActor;verticalLabelPosition=bottom;verticalAlign=top;html=1;outlineConnect=0;" parent="1" vertex="1">
          <mxGeometry x="1040" y="380" width="30" height="60" as="geometry" />
        </mxCell>
        <mxCell id="vf-qILHcZuCfZEPoGiLg-16" value="Использовать настройки" style="ellipse;whiteSpace=wrap;html=1;" parent="1" vertex="1">
          <mxGeometry x="1250" y="210" width="120" height="110" as="geometry" />
        </mxCell>
        <mxCell id="vf-qILHcZuCfZEPoGiLg-18" value="Проверка версий выбранных ПО&amp;nbsp;" style="ellipse;whiteSpace=wrap;html=1;aspect=fixed;" parent="1" vertex="1">
          <mxGeometry x="1450" y="950" width="120" height="120" as="geometry" />
        </mxCell>
        <mxCell id="vf-qILHcZuCfZEPoGiLg-19" value="Вывод списка ПО для обновления" style="ellipse;whiteSpace=wrap;html=1;aspect=fixed;" parent="1" vertex="1">
          <mxGeometry x="1620" y="840" width="115" height="115" as="geometry" />
        </mxCell>
        <mxCell id="vf-qILHcZuCfZEPoGiLg-20" value="" style="edgeStyle=orthogonalEdgeStyle;rounded=0;orthogonalLoop=1;jettySize=auto;html=1;" parent="1" source="vf-qILHcZuCfZEPoGiLg-21" target="vf-qILHcZuCfZEPoGiLg-28" edge="1">
          <mxGeometry relative="1" as="geometry" />
        </mxCell>
        <mxCell id="vf-qILHcZuCfZEPoGiLg-21" value="Скачать новую версию ПО" style="ellipse;whiteSpace=wrap;html=1;aspect=fixed;" parent="1" vertex="1">
          <mxGeometry x="1830" y="782.5" width="100" height="100" as="geometry" />
        </mxCell>
        <mxCell id="vf-qILHcZuCfZEPoGiLg-22" value="Перевод на официальный сайт продукта" style="ellipse;whiteSpace=wrap;html=1;aspect=fixed;" parent="1" vertex="1">
          <mxGeometry x="1720" y="672.5" width="110" height="110" as="geometry" />
        </mxCell>
        <mxCell id="vf-qILHcZuCfZEPoGiLg-23" value="include" style="html=1;verticalAlign=bottom;endArrow=open;dashed=1;endSize=8;curved=0;rounded=0;entryX=0;entryY=1;entryDx=0;entryDy=0;exitX=0.968;exitY=0.328;exitDx=0;exitDy=0;exitPerimeter=0;" parent="1" target="vf-qILHcZuCfZEPoGiLg-19" edge="1">
          <mxGeometry relative="1" as="geometry">
            <mxPoint x="1564.5" y="962" as="sourcePoint" />
            <mxPoint x="1675.5" y="950" as="targetPoint" />
            <Array as="points" />
          </mxGeometry>
        </mxCell>
        <mxCell id="vf-qILHcZuCfZEPoGiLg-25" value="include" style="html=1;verticalAlign=bottom;endArrow=open;dashed=1;endSize=8;curved=0;rounded=0;exitX=0.968;exitY=0.328;exitDx=0;exitDy=0;exitPerimeter=0;entryX=0;entryY=1;entryDx=0;entryDy=0;" parent="1" target="vf-qILHcZuCfZEPoGiLg-22" edge="1">
          <mxGeometry relative="1" as="geometry">
            <mxPoint x="1697" y="840" as="sourcePoint" />
            <mxPoint x="1710" y="760" as="targetPoint" />
            <Array as="points" />
          </mxGeometry>
        </mxCell>
        <mxCell id="vf-qILHcZuCfZEPoGiLg-26" value="Активировать ключ" style="ellipse;whiteSpace=wrap;html=1;aspect=fixed;" parent="1" vertex="1">
          <mxGeometry x="1250" y="420" width="120" height="120" as="geometry" />
        </mxCell>
        <mxCell id="vf-qILHcZuCfZEPoGiLg-27" value="include" style="html=1;verticalAlign=bottom;endArrow=open;dashed=1;endSize=8;curved=0;rounded=0;exitX=0.909;exitY=0.782;exitDx=0;exitDy=0;exitPerimeter=0;" parent="1" source="vf-qILHcZuCfZEPoGiLg-22" target="vf-qILHcZuCfZEPoGiLg-21" edge="1">
          <mxGeometry relative="1" as="geometry">
            <mxPoint x="1800" y="740" as="sourcePoint" />
            <mxPoint x="1830" y="780" as="targetPoint" />
            <Array as="points" />
          </mxGeometry>
        </mxCell>
        <mxCell id="vf-qILHcZuCfZEPoGiLg-28" value="Установить актуальную версию ПО" style="ellipse;whiteSpace=wrap;html=1;aspect=fixed;" parent="1" vertex="1">
          <mxGeometry x="1990" y="775" width="115" height="115" as="geometry" />
        </mxCell>
        <mxCell id="vf-qILHcZuCfZEPoGiLg-29" value="include" style="html=1;verticalAlign=bottom;endArrow=open;dashed=1;endSize=8;curved=0;rounded=0;entryX=0;entryY=0.5;entryDx=0;entryDy=0;exitX=1;exitY=0.5;exitDx=0;exitDy=0;" parent="1" source="vf-qILHcZuCfZEPoGiLg-21" target="vf-qILHcZuCfZEPoGiLg-28" edge="1">
          <mxGeometry relative="1" as="geometry">
            <mxPoint x="1940" y="840" as="sourcePoint" />
            <mxPoint x="1749" y="787" as="targetPoint" />
            <Array as="points" />
          </mxGeometry>
        </mxCell>
        <mxCell id="vf-qILHcZuCfZEPoGiLg-30" style="edgeStyle=orthogonalEdgeStyle;rounded=0;orthogonalLoop=1;jettySize=auto;html=1;exitX=0.5;exitY=0.5;exitDx=0;exitDy=0;exitPerimeter=0;" parent="1" source="vf-qILHcZuCfZEPoGiLg-32" target="vf-qILHcZuCfZEPoGiLg-18" edge="1">
          <mxGeometry relative="1" as="geometry">
            <Array as="points">
              <mxPoint x="1620" y="1060" />
              <mxPoint x="1620" y="1060" />
            </Array>
          </mxGeometry>
        </mxCell>
        <mxCell id="vf-qILHcZuCfZEPoGiLg-31" style="edgeStyle=orthogonalEdgeStyle;rounded=0;orthogonalLoop=1;jettySize=auto;html=1;" parent="1" source="vf-qILHcZuCfZEPoGiLg-32" target="vf-qILHcZuCfZEPoGiLg-19" edge="1">
          <mxGeometry relative="1" as="geometry" />
        </mxCell>
        <mxCell id="YC3LDhJm61_88W43cKcc-6" style="edgeStyle=orthogonalEdgeStyle;rounded=0;orthogonalLoop=1;jettySize=auto;html=1;entryX=0.5;entryY=1;entryDx=0;entryDy=0;" parent="1" source="vf-qILHcZuCfZEPoGiLg-32" target="YC3LDhJm61_88W43cKcc-4" edge="1">
          <mxGeometry relative="1" as="geometry" />
        </mxCell>
        <mxCell id="vf-qILHcZuCfZEPoGiLg-32" value="Агент" style="shape=umlActor;verticalLabelPosition=bottom;verticalAlign=top;html=1;outlineConnect=0;" parent="1" vertex="1">
          <mxGeometry x="1750" y="1030" width="30" height="60" as="geometry" />
        </mxCell>
        <mxCell id="vf-qILHcZuCfZEPoGiLg-33" style="edgeStyle=orthogonalEdgeStyle;rounded=0;orthogonalLoop=1;jettySize=auto;html=1;entryX=0.436;entryY=1.014;entryDx=0;entryDy=0;entryPerimeter=0;" parent="1" edge="1">
          <mxGeometry relative="1" as="geometry">
            <mxPoint x="1763.5" y="1030" as="sourcePoint" />
            <mxPoint x="1766.46" y="784.04" as="targetPoint" />
            <Array as="points">
              <mxPoint x="1764" y="1031" />
              <mxPoint x="1766" y="1031" />
            </Array>
          </mxGeometry>
        </mxCell>
        <mxCell id="vf-qILHcZuCfZEPoGiLg-34" value="Задать время для автоматической проверки" style="ellipse;whiteSpace=wrap;html=1;aspect=fixed;" parent="1" vertex="1">
          <mxGeometry x="1450" y="200" width="120" height="120" as="geometry" />
        </mxCell>
        <mxCell id="vf-qILHcZuCfZEPoGiLg-35" value="include" style="html=1;verticalAlign=bottom;endArrow=open;dashed=1;endSize=8;curved=0;rounded=0;entryX=0.007;entryY=0.683;entryDx=0;entryDy=0;exitX=0.968;exitY=0.328;exitDx=0;exitDy=0;exitPerimeter=0;entryPerimeter=0;" parent="1" target="vf-qILHcZuCfZEPoGiLg-34" edge="1">
          <mxGeometry relative="1" as="geometry">
            <mxPoint x="1370" y="282" as="sourcePoint" />
            <mxPoint x="1481" y="270" as="targetPoint" />
            <Array as="points" />
          </mxGeometry>
        </mxCell>
        <mxCell id="vf-qILHcZuCfZEPoGiLg-36" value="Указать ПО для автоматической проверки" style="ellipse;whiteSpace=wrap;html=1;aspect=fixed;" parent="1" vertex="1">
          <mxGeometry x="1650" y="205" width="120" height="120" as="geometry" />
        </mxCell>
        <mxCell id="vf-qILHcZuCfZEPoGiLg-37" value="include" style="html=1;verticalAlign=bottom;endArrow=open;dashed=1;endSize=8;curved=0;rounded=0;entryX=0.007;entryY=0.683;entryDx=0;entryDy=0;exitX=0.968;exitY=0.328;exitDx=0;exitDy=0;exitPerimeter=0;entryPerimeter=0;" parent="1" target="vf-qILHcZuCfZEPoGiLg-36" edge="1">
          <mxGeometry relative="1" as="geometry">
            <mxPoint x="1570" y="287" as="sourcePoint" />
            <mxPoint x="1681" y="275" as="targetPoint" />
            <Array as="points" />
          </mxGeometry>
        </mxCell>
        <mxCell id="YC3LDhJm61_88W43cKcc-1" value="Сохранение списка ПО и версий обновления" style="ellipse;whiteSpace=wrap;html=1;aspect=fixed;" parent="1" vertex="1">
          <mxGeometry x="560" y="840" width="115" height="115" as="geometry" />
        </mxCell>
        <mxCell id="YC3LDhJm61_88W43cKcc-2" value="include" style="html=1;verticalAlign=bottom;endArrow=open;dashed=1;endSize=8;curved=0;rounded=0;entryX=-0.006;entryY=0.355;entryDx=0;entryDy=0;exitX=0.992;exitY=0.744;exitDx=0;exitDy=0;exitPerimeter=0;entryPerimeter=0;" parent="1" source="R3nn2ONNJOOhXqBB5MOd-13" target="YC3LDhJm61_88W43cKcc-1" edge="1">
          <mxGeometry relative="1" as="geometry">
            <mxPoint x="344.5" y="912" as="sourcePoint" />
            <mxPoint x="417" y="888" as="targetPoint" />
            <Array as="points" />
          </mxGeometry>
        </mxCell>
        <mxCell id="YC3LDhJm61_88W43cKcc-4" value="Сохранение списка ПО и версий обновления" style="ellipse;whiteSpace=wrap;html=1;aspect=fixed;" parent="1" vertex="1">
          <mxGeometry x="1791" y="890" width="115" height="115" as="geometry" />
        </mxCell>
        <mxCell id="YC3LDhJm61_88W43cKcc-5" value="include" style="html=1;verticalAlign=bottom;endArrow=open;dashed=1;endSize=8;curved=0;rounded=0;entryX=-0.006;entryY=0.355;entryDx=0;entryDy=0;exitX=0.992;exitY=0.744;exitDx=0;exitDy=0;exitPerimeter=0;entryPerimeter=0;" parent="1" target="YC3LDhJm61_88W43cKcc-4" edge="1">
          <mxGeometry relative="1" as="geometry">
            <mxPoint x="1735" y="908.5" as="sourcePoint" />
            <mxPoint x="1648" y="930.5" as="targetPoint" />
            <Array as="points" />
          </mxGeometry>
        </mxCell>
      </root>
    </mxGraphModel>
  </diagram>
  <diagram id="gvHhiv0YY1tfI8kPzhuz" name="Концептуальная модель">
    <mxGraphModel dx="1434" dy="790" grid="1" gridSize="10" guides="1" tooltips="1" connect="1" arrows="1" fold="1" page="1" pageScale="1" pageWidth="2336" pageHeight="1654" math="0" shadow="0">
      <root>
        <mxCell id="0" />
        <mxCell id="1" parent="0" />
        <mxCell id="THIia0l4G9OwzOgdv2W5-11" style="edgeStyle=orthogonalEdgeStyle;rounded=0;orthogonalLoop=1;jettySize=auto;html=1;entryX=0;entryY=0.25;entryDx=0;entryDy=0;" parent="1" source="THIia0l4G9OwzOgdv2W5-1" target="THIia0l4G9OwzOgdv2W5-10" edge="1">
          <mxGeometry relative="1" as="geometry">
            <Array as="points">
              <mxPoint x="650" y="228" />
            </Array>
          </mxGeometry>
        </mxCell>
        <mxCell id="THIia0l4G9OwzOgdv2W5-12" value="Сканирует" style="edgeLabel;html=1;align=center;verticalAlign=middle;resizable=0;points=[];" parent="THIia0l4G9OwzOgdv2W5-11" connectable="0" vertex="1">
          <mxGeometry x="-0.4619" y="2" relative="1" as="geometry">
            <mxPoint as="offset" />
          </mxGeometry>
        </mxCell>
        <mxCell id="7d974z2MwasESX3lxYy--3" style="edgeStyle=orthogonalEdgeStyle;rounded=0;orthogonalLoop=1;jettySize=auto;html=1;entryX=0;entryY=0.25;entryDx=0;entryDy=0;" parent="1" source="THIia0l4G9OwzOgdv2W5-1" target="7d974z2MwasESX3lxYy--2" edge="1">
          <mxGeometry relative="1" as="geometry">
            <Array as="points">
              <mxPoint x="775" y="390" />
              <mxPoint x="775" y="488" />
            </Array>
          </mxGeometry>
        </mxCell>
        <mxCell id="7d974z2MwasESX3lxYy--4" value="Имеет" style="edgeLabel;html=1;align=center;verticalAlign=middle;resizable=0;points=[];" parent="7d974z2MwasESX3lxYy--3" connectable="0" vertex="1">
          <mxGeometry x="-0.0418" y="-1" relative="1" as="geometry">
            <mxPoint as="offset" />
          </mxGeometry>
        </mxCell>
        <mxCell id="7d974z2MwasESX3lxYy--6" style="edgeStyle=orthogonalEdgeStyle;rounded=0;orthogonalLoop=1;jettySize=auto;html=1;exitX=1;exitY=0.25;exitDx=0;exitDy=0;" parent="1" source="THIia0l4G9OwzOgdv2W5-1" target="7d974z2MwasESX3lxYy--5" edge="1">
          <mxGeometry relative="1" as="geometry" />
        </mxCell>
        <mxCell id="7d974z2MwasESX3lxYy--7" value="Проверяет" style="edgeLabel;html=1;align=center;verticalAlign=middle;resizable=0;points=[];" parent="7d974z2MwasESX3lxYy--6" connectable="0" vertex="1">
          <mxGeometry x="0.0175" y="-2" relative="1" as="geometry">
            <mxPoint as="offset" />
          </mxGeometry>
        </mxCell>
        <mxCell id="7d974z2MwasESX3lxYy--16" style="edgeStyle=orthogonalEdgeStyle;rounded=0;orthogonalLoop=1;jettySize=auto;html=1;exitX=1;exitY=0.75;exitDx=0;exitDy=0;entryX=0;entryY=0.25;entryDx=0;entryDy=0;" parent="1" source="THIia0l4G9OwzOgdv2W5-1" target="7d974z2MwasESX3lxYy--15" edge="1">
          <mxGeometry relative="1" as="geometry">
            <Array as="points">
              <mxPoint x="740" y="405" />
              <mxPoint x="740" y="570" />
              <mxPoint x="1020" y="570" />
              <mxPoint x="1020" y="428" />
            </Array>
          </mxGeometry>
        </mxCell>
        <mxCell id="7d974z2MwasESX3lxYy--17" value="Создает" style="edgeLabel;html=1;align=center;verticalAlign=middle;resizable=0;points=[];" parent="7d974z2MwasESX3lxYy--16" connectable="0" vertex="1">
          <mxGeometry x="0.7659" y="-1" relative="1" as="geometry">
            <mxPoint x="1" y="1" as="offset" />
          </mxGeometry>
        </mxCell>
        <mxCell id="9GVgca7nz0Zx-8kN7X2V-1" style="edgeStyle=orthogonalEdgeStyle;rounded=0;orthogonalLoop=1;jettySize=auto;html=1;exitX=0;exitY=0.75;exitDx=0;exitDy=0;entryX=0.5;entryY=1;entryDx=0;entryDy=0;" edge="1" parent="1" source="THIia0l4G9OwzOgdv2W5-1" target="THIia0l4G9OwzOgdv2W5-3">
          <mxGeometry relative="1" as="geometry" />
        </mxCell>
        <mxCell id="9GVgca7nz0Zx-8kN7X2V-2" value="Информирует" style="edgeLabel;html=1;align=center;verticalAlign=middle;resizable=0;points=[];" vertex="1" connectable="0" parent="9GVgca7nz0Zx-8kN7X2V-1">
          <mxGeometry x="-0.1541" relative="1" as="geometry">
            <mxPoint as="offset" />
          </mxGeometry>
        </mxCell>
        <mxCell id="THIia0l4G9OwzOgdv2W5-1" value="Агент" style="rounded=0;whiteSpace=wrap;html=1;" parent="1" vertex="1">
          <mxGeometry x="590" y="360" width="120" height="60" as="geometry" />
        </mxCell>
        <mxCell id="THIia0l4G9OwzOgdv2W5-2" value="Пользователь" style="rounded=0;whiteSpace=wrap;html=1;" parent="1" vertex="1">
          <mxGeometry x="270" y="260" width="120" height="30" as="geometry" />
        </mxCell>
        <mxCell id="THIia0l4G9OwzOgdv2W5-4" style="edgeStyle=orthogonalEdgeStyle;rounded=0;orthogonalLoop=1;jettySize=auto;html=1;entryX=0;entryY=0.5;entryDx=0;entryDy=0;" parent="1" source="THIia0l4G9OwzOgdv2W5-3" target="THIia0l4G9OwzOgdv2W5-1" edge="1">
          <mxGeometry relative="1" as="geometry" />
        </mxCell>
        <mxCell id="THIia0l4G9OwzOgdv2W5-5" value="Запускает" style="edgeLabel;html=1;align=center;verticalAlign=middle;resizable=0;points=[];" parent="THIia0l4G9OwzOgdv2W5-4" connectable="0" vertex="1">
          <mxGeometry x="-0.0415" y="-2" relative="1" as="geometry">
            <mxPoint as="offset" />
          </mxGeometry>
        </mxCell>
        <mxCell id="7d974z2MwasESX3lxYy--23" style="edgeStyle=orthogonalEdgeStyle;rounded=0;orthogonalLoop=1;jettySize=auto;html=1;exitX=1;exitY=0;exitDx=0;exitDy=0;entryX=0;entryY=0.5;entryDx=0;entryDy=0;" parent="1" source="THIia0l4G9OwzOgdv2W5-3" target="7d974z2MwasESX3lxYy--20" edge="1">
          <mxGeometry relative="1" as="geometry">
            <Array as="points">
              <mxPoint x="410" y="290" />
              <mxPoint x="410" y="70" />
            </Array>
          </mxGeometry>
        </mxCell>
        <mxCell id="7d974z2MwasESX3lxYy--24" value="Переходит" style="edgeLabel;html=1;align=center;verticalAlign=middle;resizable=0;points=[];" parent="7d974z2MwasESX3lxYy--23" connectable="0" vertex="1">
          <mxGeometry x="-0.5238" y="-3" relative="1" as="geometry">
            <mxPoint as="offset" />
          </mxGeometry>
        </mxCell>
        <mxCell id="7d974z2MwasESX3lxYy--28" style="edgeStyle=orthogonalEdgeStyle;rounded=0;orthogonalLoop=1;jettySize=auto;html=1;exitX=1;exitY=0.25;exitDx=0;exitDy=0;entryX=0;entryY=0.5;entryDx=0;entryDy=0;" parent="1" source="THIia0l4G9OwzOgdv2W5-3" target="7d974z2MwasESX3lxYy--25" edge="1">
          <mxGeometry relative="1" as="geometry" />
        </mxCell>
        <mxCell id="7d974z2MwasESX3lxYy--29" value="Скачивает" style="edgeLabel;html=1;align=center;verticalAlign=middle;resizable=0;points=[];" parent="7d974z2MwasESX3lxYy--28" connectable="0" vertex="1">
          <mxGeometry x="0.0049" y="-2" relative="1" as="geometry">
            <mxPoint y="1" as="offset" />
          </mxGeometry>
        </mxCell>
        <mxCell id="THIia0l4G9OwzOgdv2W5-3" value="id&lt;br&gt;Имя" style="rounded=0;whiteSpace=wrap;html=1;" parent="1" vertex="1">
          <mxGeometry x="270" y="290" width="120" height="70" as="geometry" />
        </mxCell>
        <mxCell id="THIia0l4G9OwzOgdv2W5-7" style="edgeStyle=orthogonalEdgeStyle;rounded=0;orthogonalLoop=1;jettySize=auto;html=1;entryX=0.5;entryY=1;entryDx=0;entryDy=0;" parent="1" source="THIia0l4G9OwzOgdv2W5-6" target="THIia0l4G9OwzOgdv2W5-1" edge="1">
          <mxGeometry relative="1" as="geometry" />
        </mxCell>
        <mxCell id="THIia0l4G9OwzOgdv2W5-8" value="Запускает" style="edgeLabel;html=1;align=center;verticalAlign=middle;resizable=0;points=[];" parent="THIia0l4G9OwzOgdv2W5-7" connectable="0" vertex="1">
          <mxGeometry x="0.5448" y="-4" relative="1" as="geometry">
            <mxPoint as="offset" />
          </mxGeometry>
        </mxCell>
        <mxCell id="THIia0l4G9OwzOgdv2W5-6" value="Автозапуск" style="rounded=0;whiteSpace=wrap;html=1;" parent="1" vertex="1">
          <mxGeometry x="370" y="520" width="120" height="60" as="geometry" />
        </mxCell>
        <mxCell id="THIia0l4G9OwzOgdv2W5-9" value="Программное обеспечение" style="rounded=0;whiteSpace=wrap;html=1;" parent="1" vertex="1">
          <mxGeometry x="800" y="180" width="120" height="30" as="geometry" />
        </mxCell>
        <mxCell id="7d974z2MwasESX3lxYy--10" style="edgeStyle=orthogonalEdgeStyle;rounded=0;orthogonalLoop=1;jettySize=auto;html=1;entryX=0.5;entryY=0;entryDx=0;entryDy=0;" parent="1" source="THIia0l4G9OwzOgdv2W5-10" target="7d974z2MwasESX3lxYy--5" edge="1">
          <mxGeometry relative="1" as="geometry" />
        </mxCell>
        <mxCell id="7d974z2MwasESX3lxYy--11" value="Выделяет" style="edgeLabel;html=1;align=center;verticalAlign=middle;resizable=0;points=[];" parent="7d974z2MwasESX3lxYy--10" connectable="0" vertex="1">
          <mxGeometry x="0.5448" y="1" relative="1" as="geometry">
            <mxPoint as="offset" />
          </mxGeometry>
        </mxCell>
        <mxCell id="THIia0l4G9OwzOgdv2W5-10" value="Название&lt;br&gt;Производитель&lt;br&gt;Версия&lt;br&gt;" style="rounded=0;whiteSpace=wrap;html=1;" parent="1" vertex="1">
          <mxGeometry x="800" y="210" width="120" height="70" as="geometry" />
        </mxCell>
        <mxCell id="7d974z2MwasESX3lxYy--1" value="Уязвимые версии ПО" style="rounded=0;whiteSpace=wrap;html=1;" parent="1" vertex="1">
          <mxGeometry x="840" y="440" width="120" height="30" as="geometry" />
        </mxCell>
        <mxCell id="7d974z2MwasESX3lxYy--8" style="edgeStyle=orthogonalEdgeStyle;rounded=0;orthogonalLoop=1;jettySize=auto;html=1;entryX=0.5;entryY=1;entryDx=0;entryDy=0;" parent="1" target="7d974z2MwasESX3lxYy--5" edge="1">
          <mxGeometry relative="1" as="geometry">
            <mxPoint x="900" y="440" as="sourcePoint" />
            <Array as="points">
              <mxPoint x="900" y="420" />
              <mxPoint x="1010" y="420" />
            </Array>
          </mxGeometry>
        </mxCell>
        <mxCell id="7d974z2MwasESX3lxYy--9" value="Сравнивает" style="edgeLabel;html=1;align=center;verticalAlign=middle;resizable=0;points=[];" parent="7d974z2MwasESX3lxYy--8" connectable="0" vertex="1">
          <mxGeometry x="0.6545" y="-1" relative="1" as="geometry">
            <mxPoint as="offset" />
          </mxGeometry>
        </mxCell>
        <mxCell id="7d974z2MwasESX3lxYy--2" value="id&lt;br&gt;Название&lt;br&gt;Версия&lt;br&gt;Уровень угрозы" style="rounded=0;whiteSpace=wrap;html=1;" parent="1" vertex="1">
          <mxGeometry x="840" y="470" width="120" height="70" as="geometry" />
        </mxCell>
        <mxCell id="7d974z2MwasESX3lxYy--18" style="edgeStyle=orthogonalEdgeStyle;rounded=0;orthogonalLoop=1;jettySize=auto;html=1;entryX=0.5;entryY=0;entryDx=0;entryDy=0;" parent="1" source="7d974z2MwasESX3lxYy--5" target="7d974z2MwasESX3lxYy--14" edge="1">
          <mxGeometry relative="1" as="geometry" />
        </mxCell>
        <mxCell id="7d974z2MwasESX3lxYy--19" value="Вносится" style="edgeLabel;html=1;align=center;verticalAlign=middle;resizable=0;points=[];" parent="7d974z2MwasESX3lxYy--18" connectable="0" vertex="1">
          <mxGeometry x="-0.2727" relative="1" as="geometry">
            <mxPoint as="offset" />
          </mxGeometry>
        </mxCell>
        <mxCell id="7d974z2MwasESX3lxYy--5" value="Версия ПО" style="rounded=0;whiteSpace=wrap;html=1;" parent="1" vertex="1">
          <mxGeometry x="950" y="300" width="120" height="60" as="geometry" />
        </mxCell>
        <mxCell id="7d974z2MwasESX3lxYy--14" value="Список обновлений" style="rounded=0;whiteSpace=wrap;html=1;" parent="1" vertex="1">
          <mxGeometry x="1180" y="380" width="120" height="30" as="geometry" />
        </mxCell>
        <mxCell id="7d974z2MwasESX3lxYy--15" value="Название&lt;br&gt;Производитель&lt;br&gt;Версия&lt;br&gt;Обновление&lt;br&gt;Уровень угрозы" style="rounded=0;whiteSpace=wrap;html=1;" parent="1" vertex="1">
          <mxGeometry x="1180" y="410" width="120" height="70" as="geometry" />
        </mxCell>
        <mxCell id="7d974z2MwasESX3lxYy--26" style="edgeStyle=orthogonalEdgeStyle;rounded=0;orthogonalLoop=1;jettySize=auto;html=1;exitX=0.25;exitY=1;exitDx=0;exitDy=0;entryX=1;entryY=0.5;entryDx=0;entryDy=0;" parent="1" source="7d974z2MwasESX3lxYy--20" target="7d974z2MwasESX3lxYy--25" edge="1">
          <mxGeometry relative="1" as="geometry">
            <Array as="points">
              <mxPoint x="830" y="160" />
            </Array>
          </mxGeometry>
        </mxCell>
        <mxCell id="7d974z2MwasESX3lxYy--27" value="Предоставляет" style="edgeLabel;html=1;align=center;verticalAlign=middle;resizable=0;points=[];" parent="7d974z2MwasESX3lxYy--26" connectable="0" vertex="1">
          <mxGeometry x="0.2182" y="1" relative="1" as="geometry">
            <mxPoint as="offset" />
          </mxGeometry>
        </mxCell>
        <mxCell id="7d974z2MwasESX3lxYy--20" value="Официальный сайт производителя" style="rounded=0;whiteSpace=wrap;html=1;" parent="1" vertex="1">
          <mxGeometry x="800" y="40" width="120" height="60" as="geometry" />
        </mxCell>
        <mxCell id="7d974z2MwasESX3lxYy--21" style="edgeStyle=orthogonalEdgeStyle;rounded=0;orthogonalLoop=1;jettySize=auto;html=1;entryX=1;entryY=0.5;entryDx=0;entryDy=0;" parent="1" source="7d974z2MwasESX3lxYy--15" target="7d974z2MwasESX3lxYy--20" edge="1">
          <mxGeometry relative="1" as="geometry">
            <Array as="points">
              <mxPoint x="1330" y="445" />
              <mxPoint x="1330" y="70" />
            </Array>
          </mxGeometry>
        </mxCell>
        <mxCell id="7d974z2MwasESX3lxYy--22" value="Содержит" style="edgeLabel;html=1;align=center;verticalAlign=middle;resizable=0;points=[];" parent="7d974z2MwasESX3lxYy--21" connectable="0" vertex="1">
          <mxGeometry x="-0.3742" y="-1" relative="1" as="geometry">
            <mxPoint as="offset" />
          </mxGeometry>
        </mxCell>
        <mxCell id="7d974z2MwasESX3lxYy--25" value="Актуальная версия ПО" style="rounded=0;whiteSpace=wrap;html=1;" parent="1" vertex="1">
          <mxGeometry x="550" y="130" width="120" height="60" as="geometry" />
        </mxCell>
        <mxCell id="GXfHtHl6xfeIQ8P60o6--2" value="Журнал событий" style="rounded=0;whiteSpace=wrap;html=1;" parent="1" vertex="1">
          <mxGeometry x="1070" y="120" width="120" height="30" as="geometry" />
        </mxCell>
        <mxCell id="GXfHtHl6xfeIQ8P60o6--3" value="Название&lt;br&gt;Производитель&lt;br&gt;Версия&lt;br&gt;Обновление&lt;br&gt;Уровень угрозы&lt;br&gt;Дата" style="rounded=0;whiteSpace=wrap;html=1;" parent="1" vertex="1">
          <mxGeometry x="1070" y="150" width="120" height="130" as="geometry" />
        </mxCell>
        <mxCell id="GXfHtHl6xfeIQ8P60o6--5" style="edgeStyle=orthogonalEdgeStyle;rounded=0;orthogonalLoop=1;jettySize=auto;html=1;exitX=1;exitY=0.25;exitDx=0;exitDy=0;entryX=1;entryY=0.392;entryDx=0;entryDy=0;entryPerimeter=0;" parent="1" source="7d974z2MwasESX3lxYy--15" target="GXfHtHl6xfeIQ8P60o6--3" edge="1">
          <mxGeometry relative="1" as="geometry">
            <Array as="points">
              <mxPoint x="1310" y="428" />
              <mxPoint x="1310" y="201" />
            </Array>
          </mxGeometry>
        </mxCell>
        <mxCell id="GXfHtHl6xfeIQ8P60o6--6" value="Вносится" style="edgeLabel;html=1;align=center;verticalAlign=middle;resizable=0;points=[];" parent="GXfHtHl6xfeIQ8P60o6--5" connectable="0" vertex="1">
          <mxGeometry x="-0.2118" y="2" relative="1" as="geometry">
            <mxPoint as="offset" />
          </mxGeometry>
        </mxCell>
      </root>
    </mxGraphModel>
  </diagram>
  <diagram id="MoPawPNGKuuOJqNkK70O" name="Диаграмма классов">
    <mxGraphModel dx="1434" dy="790" grid="1" gridSize="10" guides="1" tooltips="1" connect="1" arrows="1" fold="1" page="1" pageScale="1" pageWidth="2336" pageHeight="1654" math="0" shadow="0">
      <root>
        <mxCell id="0" />
        <mxCell id="1" parent="0" />
      </root>
    </mxGraphModel>
  </diagram>
  <diagram id="HKmZvcaBFeZZGP4DuhDE" name="Диаграмма компонентов ">
    <mxGraphModel dx="989" dy="2199" grid="1" gridSize="10" guides="1" tooltips="1" connect="1" arrows="1" fold="1" page="1" pageScale="1" pageWidth="2336" pageHeight="1654" math="0" shadow="0">
      <root>
        <mxCell id="0" />
        <mxCell id="1" parent="0" />
        <mxCell id="zQXng9CU5dMZewM2-pSy-1" value="Компьютер пользователя Win 10/11" style="verticalAlign=top;align=left;spacingTop=8;spacingLeft=2;spacingRight=12;shape=cube;size=10;direction=south;fontStyle=4;html=1;whiteSpace=wrap;" vertex="1" parent="1">
          <mxGeometry x="370" y="140" width="810" height="530" as="geometry" />
        </mxCell>
        <mxCell id="zQXng9CU5dMZewM2-pSy-3" value="Health-Guard" style="verticalAlign=top;align=left;spacingTop=8;spacingLeft=2;spacingRight=12;shape=cube;size=10;direction=south;fontStyle=4;html=1;whiteSpace=wrap;" vertex="1" parent="1">
          <mxGeometry x="495" y="190" width="560" height="450" as="geometry" />
        </mxCell>
        <mxCell id="j4HDhbDZ7vqUbJKcSW6v-2" value="PostgreSQL" style="strokeWidth=2;html=1;shape=mxgraph.flowchart.database;whiteSpace=wrap;" vertex="1" parent="1">
          <mxGeometry x="640" y="500" width="150" height="70" as="geometry" />
        </mxCell>
        <mxCell id="f8u4DKdf_5D3unVdjzyc-3" value="HTTP" style="shape=providedRequiredInterface;html=1;verticalLabelPosition=bottom;sketch=0;rotation=-90;" vertex="1" parent="1">
          <mxGeometry x="750" y="80" width="20" height="20" as="geometry" />
        </mxCell>
        <mxCell id="f8u4DKdf_5D3unVdjzyc-6" value="" style="endArrow=none;html=1;rounded=0;entryX=0;entryY=0.5;entryDx=0;entryDy=0;entryPerimeter=0;exitX=0;exitY=0;exitDx=0;exitDy=15;exitPerimeter=0;edgeStyle=orthogonalEdgeStyle;" edge="1" parent="1" source="f8u4DKdf_5D3unVdjzyc-30" target="f8u4DKdf_5D3unVdjzyc-3">
          <mxGeometry width="50" height="50" relative="1" as="geometry">
            <mxPoint x="760" y="190" as="sourcePoint" />
            <mxPoint x="800" y="171.1" as="targetPoint" />
            <Array as="points">
              <mxPoint x="570" y="305" />
              <mxPoint x="570" y="240" />
              <mxPoint x="760" y="240" />
            </Array>
          </mxGeometry>
        </mxCell>
        <mxCell id="f8u4DKdf_5D3unVdjzyc-7" value="" style="endArrow=none;html=1;rounded=0;exitX=1;exitY=0.5;exitDx=0;exitDy=0;exitPerimeter=0;entryX=0.493;entryY=0.954;entryDx=0;entryDy=0;entryPerimeter=0;" edge="1" parent="1" source="f8u4DKdf_5D3unVdjzyc-3" target="f8u4DKdf_5D3unVdjzyc-8">
          <mxGeometry width="50" height="50" relative="1" as="geometry">
            <mxPoint x="740" y="91.1" as="sourcePoint" />
            <mxPoint x="761.54" y="39.17999999999993" as="targetPoint" />
          </mxGeometry>
        </mxCell>
        <mxCell id="f8u4DKdf_5D3unVdjzyc-8" value="Official Site Project" style="ellipse;shape=cloud;whiteSpace=wrap;html=1;" vertex="1" parent="1">
          <mxGeometry x="700" y="-58.9" width="120" height="80" as="geometry" />
        </mxCell>
        <mxCell id="f8u4DKdf_5D3unVdjzyc-16" value="Front-end" style="shape=module;align=left;spacingLeft=20;align=center;verticalAlign=top;whiteSpace=wrap;html=1;" vertex="1" parent="1">
          <mxGeometry x="875" y="260" width="100" height="120" as="geometry" />
        </mxCell>
        <mxCell id="f8u4DKdf_5D3unVdjzyc-17" value="Back-end" style="shape=module;align=left;spacingLeft=20;align=center;verticalAlign=top;whiteSpace=wrap;html=1;" vertex="1" parent="1">
          <mxGeometry x="875" y="420" width="100" height="120" as="geometry" />
        </mxCell>
        <mxCell id="f8u4DKdf_5D3unVdjzyc-18" value="" style="html=1;verticalAlign=bottom;endArrow=none;dashed=1;endSize=8;rounded=0;entryX=0.35;entryY=0.043;entryDx=0;entryDy=0;entryPerimeter=0;edgeStyle=orthogonalEdgeStyle;exitX=0;exitY=0;exitDx=0;exitDy=35;exitPerimeter=0;startArrow=open;startFill=0;endFill=0;" edge="1" parent="1" source="f8u4DKdf_5D3unVdjzyc-30" target="j4HDhbDZ7vqUbJKcSW6v-2">
          <mxGeometry relative="1" as="geometry">
            <mxPoint x="639.9655172413793" y="370" as="sourcePoint" />
            <mxPoint x="560" y="430" as="targetPoint" />
          </mxGeometry>
        </mxCell>
        <mxCell id="f8u4DKdf_5D3unVdjzyc-23" value="" style="endArrow=none;html=1;rounded=0;edgeStyle=orthogonalEdgeStyle;entryX=0;entryY=0;entryDx=0;entryDy=35;entryPerimeter=0;exitX=0;exitY=0;exitDx=0;exitDy=15;exitPerimeter=0;" edge="1" parent="1" source="f8u4DKdf_5D3unVdjzyc-17" target="f8u4DKdf_5D3unVdjzyc-16">
          <mxGeometry width="50" height="50" relative="1" as="geometry">
            <mxPoint x="810" y="490" as="sourcePoint" />
            <mxPoint x="860" y="440" as="targetPoint" />
          </mxGeometry>
        </mxCell>
        <mxCell id="f8u4DKdf_5D3unVdjzyc-24" value="" style="endArrow=none;html=1;rounded=0;edgeStyle=orthogonalEdgeStyle;entryX=0;entryY=0;entryDx=0;entryDy=35;entryPerimeter=0;exitX=1;exitY=0.364;exitDx=0;exitDy=0;exitPerimeter=0;startArrow=open;startFill=0;dashed=1;" edge="1" parent="1" source="j4HDhbDZ7vqUbJKcSW6v-2" target="f8u4DKdf_5D3unVdjzyc-17">
          <mxGeometry width="50" height="50" relative="1" as="geometry">
            <mxPoint x="770" y="460" as="sourcePoint" />
            <mxPoint x="820" y="410" as="targetPoint" />
          </mxGeometry>
        </mxCell>
        <mxCell id="f8u4DKdf_5D3unVdjzyc-25" value="&lt;font style=&quot;font-size: 8px;&quot;&gt;Настройка&lt;/font&gt;" style="rounded=0;whiteSpace=wrap;html=1;" vertex="1" parent="1">
          <mxGeometry x="900" y="300" width="70" height="30" as="geometry" />
        </mxCell>
        <mxCell id="f8u4DKdf_5D3unVdjzyc-26" value="&lt;font style=&quot;font-size: 8px;&quot;&gt;Вывод отчета&lt;/font&gt;" style="rounded=0;whiteSpace=wrap;html=1;" vertex="1" parent="1">
          <mxGeometry x="900" y="340" width="70" height="30" as="geometry" />
        </mxCell>
        <mxCell id="f8u4DKdf_5D3unVdjzyc-28" value="&lt;font style=&quot;font-size: 6px;&quot;&gt;Сбор информации о ПО&lt;/font&gt;" style="rounded=0;whiteSpace=wrap;html=1;" vertex="1" parent="1">
          <mxGeometry x="902.5" y="450" width="65" height="30" as="geometry" />
        </mxCell>
        <mxCell id="f8u4DKdf_5D3unVdjzyc-29" value="&lt;font style=&quot;font-size: 6px;&quot;&gt;Формирование отчета&lt;/font&gt;" style="rounded=0;whiteSpace=wrap;html=1;" vertex="1" parent="1">
          <mxGeometry x="902.5" y="490" width="65" height="30" as="geometry" />
        </mxCell>
        <mxCell id="f8u4DKdf_5D3unVdjzyc-30" value="Parser" style="shape=module;align=left;spacingLeft=20;align=center;verticalAlign=top;whiteSpace=wrap;html=1;" vertex="1" parent="1">
          <mxGeometry x="580" y="290" width="100" height="50" as="geometry" />
        </mxCell>
      </root>
    </mxGraphModel>
  </diagram>
  <diagram id="YcNEPRoCo_VHckk99E9X" name="Пояснительная модель">
    <mxGraphModel grid="1" page="1" gridSize="10" guides="1" tooltips="1" connect="1" arrows="1" fold="1" pageScale="1" pageWidth="2336" pageHeight="1654" math="0" shadow="0">
      <root>
        <mxCell id="0" />
        <mxCell id="1" parent="0" />
        <mxCell id="fMQeoemZd60hINEldidN-1" style="edgeStyle=orthogonalEdgeStyle;rounded=0;orthogonalLoop=1;jettySize=auto;html=1;exitX=0;exitY=1;exitDx=0;exitDy=0;entryX=0.75;entryY=0;entryDx=0;entryDy=0;" edge="1" parent="1" source="fMQeoemZd60hINEldidN-2" target="fMQeoemZd60hINEldidN-73">
          <mxGeometry relative="1" as="geometry">
            <Array as="points">
              <mxPoint x="845" y="-450" />
            </Array>
          </mxGeometry>
        </mxCell>
        <mxCell id="fMQeoemZd60hINEldidN-2" value="" style="rounded=0;whiteSpace=wrap;html=1;" vertex="1" parent="1">
          <mxGeometry x="1140" y="-600" width="650" height="150" as="geometry" />
        </mxCell>
        <mxCell id="fMQeoemZd60hINEldidN-3" value="" style="rounded=0;whiteSpace=wrap;html=1;" vertex="1" parent="1">
          <mxGeometry x="2260" y="-450" width="370" height="280" as="geometry" />
        </mxCell>
        <mxCell id="fMQeoemZd60hINEldidN-4" value="" style="rounded=0;whiteSpace=wrap;html=1;" vertex="1" parent="1">
          <mxGeometry x="1970" y="-325" width="270" height="315" as="geometry" />
        </mxCell>
        <mxCell id="fMQeoemZd60hINEldidN-5" value="" style="rounded=0;whiteSpace=wrap;html=1;" vertex="1" parent="1">
          <mxGeometry x="970" y="-370" width="710" height="480" as="geometry" />
        </mxCell>
        <mxCell id="fMQeoemZd60hINEldidN-6" value="" style="rounded=0;whiteSpace=wrap;html=1;" vertex="1" parent="1">
          <mxGeometry x="800" y="-310" width="140" height="350" as="geometry" />
        </mxCell>
        <mxCell id="fMQeoemZd60hINEldidN-7" value="" style="rounded=0;whiteSpace=wrap;html=1;" vertex="1" parent="1">
          <mxGeometry x="570" y="-1160" width="920" height="530" as="geometry" />
        </mxCell>
        <mxCell id="fMQeoemZd60hINEldidN-8" value="&lt;div&gt;Информация об эксплуатации приложения&lt;br&gt;&lt;/div&gt;" style="rounded=0;whiteSpace=wrap;html=1;align=center;verticalAlign=bottom;" vertex="1" parent="1">
          <mxGeometry x="610" y="-870" width="160" height="80" as="geometry" />
        </mxCell>
        <mxCell id="fMQeoemZd60hINEldidN-9" value="" style="rounded=0;whiteSpace=wrap;html=1;" vertex="1" parent="1">
          <mxGeometry x="610" y="-1020" width="160" height="120" as="geometry" />
        </mxCell>
        <mxCell id="fMQeoemZd60hINEldidN-10" value="" style="rounded=0;whiteSpace=wrap;html=1;" vertex="1" parent="1">
          <mxGeometry x="810" y="-1080" width="640" height="430" as="geometry" />
        </mxCell>
        <mxCell id="fMQeoemZd60hINEldidN-11" value="Информация" style="html=1;whiteSpace=wrap;" vertex="1" parent="1">
          <mxGeometry x="570" y="-1160" width="920" height="30" as="geometry" />
        </mxCell>
        <mxCell id="fMQeoemZd60hINEldidN-12" value="О приложении" style="html=1;whiteSpace=wrap;" vertex="1" parent="1">
          <mxGeometry x="610" y="-1020" width="160" height="40" as="geometry" />
        </mxCell>
        <mxCell id="fMQeoemZd60hINEldidN-13" value="О разработчике" style="html=1;whiteSpace=wrap;" vertex="1" parent="1">
          <mxGeometry x="810" y="-1080" width="640" height="50" as="geometry" />
        </mxCell>
        <mxCell id="fMQeoemZd60hINEldidN-14" value="Инструкция" style="html=1;whiteSpace=wrap;" vertex="1" parent="1">
          <mxGeometry x="610" y="-870" width="160" height="40" as="geometry" />
        </mxCell>
        <mxCell id="fMQeoemZd60hINEldidN-15" value="" style="rounded=0;whiteSpace=wrap;html=1;" vertex="1" parent="1">
          <mxGeometry x="835" y="-1020" width="325" height="340" as="geometry" />
        </mxCell>
        <mxCell id="fMQeoemZd60hINEldidN-16" value="Лицензирование" style="rounded=0;whiteSpace=wrap;html=1;" vertex="1" parent="1">
          <mxGeometry x="835" y="-1020" width="325" height="30" as="geometry" />
        </mxCell>
        <mxCell id="fMQeoemZd60hINEldidN-17" value="Платеж" style="swimlane;fontStyle=0;childLayout=stackLayout;horizontal=1;startSize=30;horizontalStack=0;resizeParent=1;resizeParentMax=0;resizeLast=0;collapsible=1;marginBottom=0;whiteSpace=wrap;html=1;" vertex="1" parent="1">
          <mxGeometry x="844" y="-975" width="96" height="150" as="geometry">
            <mxRectangle x="844" y="-975" width="120" height="30" as="alternateBounds" />
          </mxGeometry>
        </mxCell>
        <mxCell id="fMQeoemZd60hINEldidN-18" value="ФИО" style="text;strokeColor=none;fillColor=none;align=left;verticalAlign=middle;spacingLeft=4;spacingRight=4;overflow=hidden;points=[[0,0.5],[1,0.5]];portConstraint=eastwest;rotatable=0;whiteSpace=wrap;html=1;" vertex="1" parent="fMQeoemZd60hINEldidN-17">
          <mxGeometry y="30" width="96" height="30" as="geometry" />
        </mxCell>
        <mxCell id="fMQeoemZd60hINEldidN-19" style="edgeStyle=orthogonalEdgeStyle;rounded=0;orthogonalLoop=1;jettySize=auto;html=1;exitX=1;exitY=0.5;exitDx=0;exitDy=0;entryX=1;entryY=0.5;entryDx=0;entryDy=0;" edge="1" parent="fMQeoemZd60hINEldidN-17" source="fMQeoemZd60hINEldidN-20" target="fMQeoemZd60hINEldidN-17">
          <mxGeometry relative="1" as="geometry" />
        </mxCell>
        <mxCell id="fMQeoemZd60hINEldidN-20" value="Сумма" style="text;strokeColor=none;fillColor=none;align=left;verticalAlign=middle;spacingLeft=4;spacingRight=4;overflow=hidden;points=[[0,0.5],[1,0.5]];portConstraint=eastwest;rotatable=0;whiteSpace=wrap;html=1;" vertex="1" parent="fMQeoemZd60hINEldidN-17">
          <mxGeometry y="60" width="96" height="30" as="geometry" />
        </mxCell>
        <mxCell id="fMQeoemZd60hINEldidN-21" value="Номер карты" style="text;strokeColor=none;fillColor=none;align=left;verticalAlign=middle;spacingLeft=4;spacingRight=4;overflow=hidden;points=[[0,0.5],[1,0.5]];portConstraint=eastwest;rotatable=0;whiteSpace=wrap;html=1;" vertex="1" parent="fMQeoemZd60hINEldidN-17">
          <mxGeometry y="90" width="96" height="30" as="geometry" />
        </mxCell>
        <mxCell id="fMQeoemZd60hINEldidN-22" value="Комментарий" style="text;strokeColor=none;fillColor=none;align=left;verticalAlign=middle;spacingLeft=4;spacingRight=4;overflow=hidden;points=[[0,0.5],[1,0.5]];portConstraint=eastwest;rotatable=0;whiteSpace=wrap;html=1;" vertex="1" parent="fMQeoemZd60hINEldidN-17">
          <mxGeometry y="120" width="96" height="30" as="geometry" />
        </mxCell>
        <mxCell id="fMQeoemZd60hINEldidN-23" style="edgeStyle=orthogonalEdgeStyle;rounded=0;orthogonalLoop=1;jettySize=auto;html=1;exitX=0.5;exitY=1;exitDx=0;exitDy=0;entryX=0.5;entryY=0;entryDx=0;entryDy=0;" edge="1" parent="1" source="fMQeoemZd60hINEldidN-24" target="fMQeoemZd60hINEldidN-31">
          <mxGeometry relative="1" as="geometry" />
        </mxCell>
        <mxCell id="fMQeoemZd60hINEldidN-24" value="Отправлен" style="rounded=0;whiteSpace=wrap;html=1;" vertex="1" parent="1">
          <mxGeometry x="1010" y="-805" width="120" height="40" as="geometry" />
        </mxCell>
        <mxCell id="fMQeoemZd60hINEldidN-25" style="edgeStyle=orthogonalEdgeStyle;rounded=0;orthogonalLoop=1;jettySize=auto;html=1;exitX=0.5;exitY=0;exitDx=0;exitDy=0;entryX=0.5;entryY=1;entryDx=0;entryDy=0;" edge="1" parent="1" source="fMQeoemZd60hINEldidN-26" target="fMQeoemZd60hINEldidN-30">
          <mxGeometry relative="1" as="geometry" />
        </mxCell>
        <mxCell id="fMQeoemZd60hINEldidN-26" value="Не отправлен" style="rounded=0;whiteSpace=wrap;html=1;" vertex="1" parent="1">
          <mxGeometry x="1010" y="-865" width="120" height="40" as="geometry" />
        </mxCell>
        <mxCell id="fMQeoemZd60hINEldidN-27" style="edgeStyle=orthogonalEdgeStyle;rounded=0;orthogonalLoop=1;jettySize=auto;html=1;exitX=1;exitY=0.5;exitDx=0;exitDy=0;entryX=0;entryY=0.5;entryDx=0;entryDy=0;" edge="1" parent="1" source="fMQeoemZd60hINEldidN-20" target="fMQeoemZd60hINEldidN-24">
          <mxGeometry relative="1" as="geometry">
            <Array as="points">
              <mxPoint x="960" y="-900" />
              <mxPoint x="960" y="-785" />
            </Array>
          </mxGeometry>
        </mxCell>
        <mxCell id="fMQeoemZd60hINEldidN-28" style="edgeStyle=orthogonalEdgeStyle;rounded=0;orthogonalLoop=1;jettySize=auto;html=1;exitX=1;exitY=0.5;exitDx=0;exitDy=0;entryX=0.25;entryY=0;entryDx=0;entryDy=0;" edge="1" parent="1" source="fMQeoemZd60hINEldidN-17" target="fMQeoemZd60hINEldidN-26">
          <mxGeometry relative="1" as="geometry" />
        </mxCell>
        <mxCell id="fMQeoemZd60hINEldidN-29" style="edgeStyle=orthogonalEdgeStyle;rounded=0;orthogonalLoop=1;jettySize=auto;html=1;exitX=0;exitY=0.5;exitDx=0;exitDy=0;entryX=0.992;entryY=0.111;entryDx=0;entryDy=0;entryPerimeter=0;" edge="1" parent="1" source="fMQeoemZd60hINEldidN-30" target="fMQeoemZd60hINEldidN-17">
          <mxGeometry relative="1" as="geometry">
            <Array as="points">
              <mxPoint x="1010" y="-958" />
            </Array>
          </mxGeometry>
        </mxCell>
        <mxCell id="fMQeoemZd60hINEldidN-30" value="Ошибка" style="rounded=0;whiteSpace=wrap;html=1;" vertex="1" parent="1">
          <mxGeometry x="1010" y="-975" width="120" height="30" as="geometry" />
        </mxCell>
        <mxCell id="fMQeoemZd60hINEldidN-31" value="Отправка ключа" style="rounded=0;whiteSpace=wrap;html=1;" vertex="1" parent="1">
          <mxGeometry x="1010" y="-740" width="120" height="40" as="geometry" />
        </mxCell>
        <mxCell id="fMQeoemZd60hINEldidN-32" value="&lt;ol&gt;&lt;li&gt;Имя&lt;/li&gt;&lt;li&gt;Информация краткая&lt;/li&gt;&lt;li&gt;Почта для обратной связи&lt;/li&gt;&lt;li&gt;Лицензирование&lt;/li&gt;&lt;/ol&gt;" style="rounded=0;whiteSpace=wrap;html=1;verticalAlign=bottom;" vertex="1" parent="1">
          <mxGeometry x="1260" y="-920" width="150" height="150" as="geometry" />
        </mxCell>
        <mxCell id="fMQeoemZd60hINEldidN-33" value="О разработчике_инфо" style="rounded=0;whiteSpace=wrap;html=1;" vertex="1" parent="1">
          <mxGeometry x="1260" y="-920" width="150" height="40" as="geometry" />
        </mxCell>
        <mxCell id="fMQeoemZd60hINEldidN-34" value="Краткая информация о приложении" style="text;html=1;strokeColor=none;fillColor=none;align=center;verticalAlign=middle;whiteSpace=wrap;rounded=0;" vertex="1" parent="1">
          <mxGeometry x="610" y="-980" width="160" height="80" as="geometry" />
        </mxCell>
        <mxCell id="fMQeoemZd60hINEldidN-35" style="edgeStyle=orthogonalEdgeStyle;rounded=0;orthogonalLoop=1;jettySize=auto;html=1;exitX=0;exitY=0.25;exitDx=0;exitDy=0;entryX=1.003;entryY=0.403;entryDx=0;entryDy=0;entryPerimeter=0;" edge="1" parent="1" source="fMQeoemZd60hINEldidN-32" target="fMQeoemZd60hINEldidN-15">
          <mxGeometry relative="1" as="geometry" />
        </mxCell>
        <mxCell id="fMQeoemZd60hINEldidN-36" style="edgeStyle=orthogonalEdgeStyle;rounded=0;orthogonalLoop=1;jettySize=auto;html=1;entryX=0;entryY=0.5;entryDx=0;entryDy=0;" edge="1" parent="1" source="fMQeoemZd60hINEldidN-37" target="fMQeoemZd60hINEldidN-51">
          <mxGeometry relative="1" as="geometry" />
        </mxCell>
        <mxCell id="fMQeoemZd60hINEldidN-37" value="USER" style="ellipse;whiteSpace=wrap;html=1;aspect=fixed;" vertex="1" parent="1">
          <mxGeometry x="1030" y="-550" width="80" height="80" as="geometry" />
        </mxCell>
        <mxCell id="fMQeoemZd60hINEldidN-38" style="edgeStyle=orthogonalEdgeStyle;rounded=0;orthogonalLoop=1;jettySize=auto;html=1;entryX=0.543;entryY=1.006;entryDx=0;entryDy=0;entryPerimeter=0;" edge="1" parent="1" source="fMQeoemZd60hINEldidN-37" target="fMQeoemZd60hINEldidN-7">
          <mxGeometry relative="1" as="geometry" />
        </mxCell>
        <mxCell id="fMQeoemZd60hINEldidN-39" style="edgeStyle=orthogonalEdgeStyle;rounded=0;orthogonalLoop=1;jettySize=auto;html=1;" edge="1" parent="1" source="fMQeoemZd60hINEldidN-41" target="fMQeoemZd60hINEldidN-63">
          <mxGeometry relative="1" as="geometry" />
        </mxCell>
        <mxCell id="fMQeoemZd60hINEldidN-40" style="edgeStyle=orthogonalEdgeStyle;rounded=0;orthogonalLoop=1;jettySize=auto;html=1;exitX=0.5;exitY=0;exitDx=0;exitDy=0;entryX=0;entryY=0.5;entryDx=0;entryDy=0;" edge="1" parent="1" source="fMQeoemZd60hINEldidN-41" target="fMQeoemZd60hINEldidN-76">
          <mxGeometry relative="1" as="geometry" />
        </mxCell>
        <mxCell id="fMQeoemZd60hINEldidN-41" value="Программы" style="rounded=0;whiteSpace=wrap;html=1;" vertex="1" parent="1">
          <mxGeometry x="1010" y="-360" width="120" height="60" as="geometry" />
        </mxCell>
        <mxCell id="fMQeoemZd60hINEldidN-42" style="edgeStyle=orthogonalEdgeStyle;rounded=0;orthogonalLoop=1;jettySize=auto;html=1;" edge="1" parent="1" source="fMQeoemZd60hINEldidN-44" target="fMQeoemZd60hINEldidN-46">
          <mxGeometry relative="1" as="geometry" />
        </mxCell>
        <mxCell id="fMQeoemZd60hINEldidN-43" style="edgeStyle=orthogonalEdgeStyle;rounded=0;orthogonalLoop=1;jettySize=auto;html=1;entryX=0.5;entryY=1;entryDx=0;entryDy=0;" edge="1" parent="1" source="fMQeoemZd60hINEldidN-44" target="fMQeoemZd60hINEldidN-41">
          <mxGeometry relative="1" as="geometry" />
        </mxCell>
        <mxCell id="fMQeoemZd60hINEldidN-44" value="Programme Info" style="rounded=0;whiteSpace=wrap;html=1;movable=1;resizable=1;rotatable=1;deletable=1;editable=1;locked=0;connectable=1;" vertex="1" parent="1">
          <mxGeometry x="1010" y="-240" width="120" height="60" as="geometry" />
        </mxCell>
        <mxCell id="fMQeoemZd60hINEldidN-45" value="Название&lt;br&gt;Версия&lt;br&gt;Расположение ПО&lt;br&gt;Уровень угрозы&lt;br&gt;Дата обновления" style="rounded=0;whiteSpace=wrap;html=1;movable=1;resizable=1;rotatable=1;deletable=1;editable=1;locked=0;connectable=1;" vertex="1" parent="1">
          <mxGeometry x="1010" y="-180" width="120" height="90" as="geometry" />
        </mxCell>
        <mxCell id="fMQeoemZd60hINEldidN-46" value="Доверенная зона" style="rounded=0;whiteSpace=wrap;html=1;" vertex="1" parent="1">
          <mxGeometry x="1170" y="-240" width="120" height="60" as="geometry" />
        </mxCell>
        <mxCell id="fMQeoemZd60hINEldidN-47" style="edgeStyle=orthogonalEdgeStyle;rounded=0;orthogonalLoop=1;jettySize=auto;html=1;entryX=0.5;entryY=1;entryDx=0;entryDy=0;" edge="1" parent="1" source="fMQeoemZd60hINEldidN-48" target="fMQeoemZd60hINEldidN-46">
          <mxGeometry relative="1" as="geometry" />
        </mxCell>
        <mxCell id="fMQeoemZd60hINEldidN-48" value="Редактирование" style="rounded=0;whiteSpace=wrap;html=1;" vertex="1" parent="1">
          <mxGeometry x="1170" y="-150" width="120" height="60" as="geometry" />
        </mxCell>
        <mxCell id="fMQeoemZd60hINEldidN-49" value="Добавить&lt;br&gt;Сохранить&lt;br&gt;Удалить" style="rounded=0;whiteSpace=wrap;html=1;" vertex="1" parent="1">
          <mxGeometry x="1170" y="-90" width="120" height="60" as="geometry" />
        </mxCell>
        <mxCell id="fMQeoemZd60hINEldidN-50" style="edgeStyle=orthogonalEdgeStyle;rounded=0;orthogonalLoop=1;jettySize=auto;html=1;entryX=0;entryY=0.5;entryDx=0;entryDy=0;" edge="1" parent="1" source="fMQeoemZd60hINEldidN-51" target="fMQeoemZd60hINEldidN-41">
          <mxGeometry relative="1" as="geometry">
            <Array as="points">
              <mxPoint x="870" y="-330" />
            </Array>
          </mxGeometry>
        </mxCell>
        <mxCell id="fMQeoemZd60hINEldidN-51" value="Поиск программ" style="rounded=0;whiteSpace=wrap;html=1;" vertex="1" parent="1">
          <mxGeometry x="810" y="-240" width="120" height="60" as="geometry" />
        </mxCell>
        <mxCell id="fMQeoemZd60hINEldidN-52" style="edgeStyle=orthogonalEdgeStyle;rounded=0;orthogonalLoop=1;jettySize=auto;html=1;entryX=0.5;entryY=1;entryDx=0;entryDy=0;" edge="1" parent="1" source="fMQeoemZd60hINEldidN-53" target="fMQeoemZd60hINEldidN-51">
          <mxGeometry relative="1" as="geometry" />
        </mxCell>
        <mxCell id="fMQeoemZd60hINEldidN-53" value="Работа поиска" style="rounded=0;whiteSpace=wrap;html=1;" vertex="1" parent="1">
          <mxGeometry x="810" y="-100" width="120" height="60" as="geometry" />
        </mxCell>
        <mxCell id="fMQeoemZd60hINEldidN-54" value="По областям&lt;br&gt;По папкам&lt;br&gt;По всей системе" style="rounded=0;whiteSpace=wrap;html=1;" vertex="1" parent="1">
          <mxGeometry x="810" y="-40" width="120" height="60" as="geometry" />
        </mxCell>
        <mxCell id="fMQeoemZd60hINEldidN-55" style="edgeStyle=orthogonalEdgeStyle;rounded=0;orthogonalLoop=1;jettySize=auto;html=1;entryX=0.5;entryY=1;entryDx=0;entryDy=0;" edge="1" parent="1" source="fMQeoemZd60hINEldidN-56" target="fMQeoemZd60hINEldidN-45">
          <mxGeometry relative="1" as="geometry" />
        </mxCell>
        <mxCell id="fMQeoemZd60hINEldidN-56" value="Уровень угрозы" style="rounded=0;whiteSpace=wrap;html=1;" vertex="1" parent="1">
          <mxGeometry x="1010" y="-60" width="120" height="60" as="geometry" />
        </mxCell>
        <mxCell id="fMQeoemZd60hINEldidN-57" value="Критический&lt;br&gt;Высокий&lt;br&gt;Средний&lt;br&gt;Низкий&lt;br&gt;Отсутствует" style="rounded=0;whiteSpace=wrap;html=1;" vertex="1" parent="1">
          <mxGeometry x="1010" width="120" height="80" as="geometry" />
        </mxCell>
        <mxCell id="fMQeoemZd60hINEldidN-58" style="edgeStyle=orthogonalEdgeStyle;rounded=0;orthogonalLoop=1;jettySize=auto;html=1;entryX=0.75;entryY=0;entryDx=0;entryDy=0;" edge="1" parent="1" source="fMQeoemZd60hINEldidN-60" target="fMQeoemZd60hINEldidN-44">
          <mxGeometry relative="1" as="geometry">
            <Array as="points">
              <mxPoint x="1430" y="-260" />
              <mxPoint x="1100" y="-260" />
            </Array>
          </mxGeometry>
        </mxCell>
        <mxCell id="fMQeoemZd60hINEldidN-59" style="edgeStyle=orthogonalEdgeStyle;rounded=0;orthogonalLoop=1;jettySize=auto;html=1;entryX=0;entryY=0.5;entryDx=0;entryDy=0;" edge="1" parent="1" source="fMQeoemZd60hINEldidN-60" target="fMQeoemZd60hINEldidN-63">
          <mxGeometry relative="1" as="geometry" />
        </mxCell>
        <mxCell id="fMQeoemZd60hINEldidN-60" value="Парсинг" style="rounded=0;whiteSpace=wrap;html=1;" vertex="1" parent="1">
          <mxGeometry x="1370" y="-240" width="260" height="260" as="geometry" />
        </mxCell>
        <mxCell id="fMQeoemZd60hINEldidN-61" style="edgeStyle=orthogonalEdgeStyle;rounded=0;orthogonalLoop=1;jettySize=auto;html=1;entryX=0;entryY=0.5;entryDx=0;entryDy=0;" edge="1" parent="1" source="fMQeoemZd60hINEldidN-63" target="fMQeoemZd60hINEldidN-65">
          <mxGeometry relative="1" as="geometry" />
        </mxCell>
        <mxCell id="fMQeoemZd60hINEldidN-62" style="edgeStyle=orthogonalEdgeStyle;rounded=0;orthogonalLoop=1;jettySize=auto;html=1;entryX=0;entryY=0.5;entryDx=0;entryDy=0;" edge="1" parent="1" source="fMQeoemZd60hINEldidN-63" target="fMQeoemZd60hINEldidN-67">
          <mxGeometry relative="1" as="geometry">
            <Array as="points">
              <mxPoint x="1925" y="-190" />
              <mxPoint x="1925" y="-100" />
            </Array>
          </mxGeometry>
        </mxCell>
        <mxCell id="fMQeoemZd60hINEldidN-63" value="Правила" style="rounded=0;whiteSpace=wrap;html=1;" vertex="1" parent="1">
          <mxGeometry x="1710" y="-260" width="230" height="300" as="geometry" />
        </mxCell>
        <mxCell id="fMQeoemZd60hINEldidN-64" style="edgeStyle=orthogonalEdgeStyle;rounded=0;orthogonalLoop=1;jettySize=auto;html=1;entryX=0.5;entryY=1;entryDx=0;entryDy=0;" edge="1" parent="1" source="fMQeoemZd60hINEldidN-65" target="fMQeoemZd60hINEldidN-68">
          <mxGeometry relative="1" as="geometry" />
        </mxCell>
        <mxCell id="fMQeoemZd60hINEldidN-65" value="ПО защищено" style="rounded=0;whiteSpace=wrap;html=1;" vertex="1" parent="1">
          <mxGeometry x="2030" y="-240" width="120" height="60" as="geometry" />
        </mxCell>
        <mxCell id="fMQeoemZd60hINEldidN-66" style="edgeStyle=orthogonalEdgeStyle;rounded=0;orthogonalLoop=1;jettySize=auto;html=1;exitX=1;exitY=0.75;exitDx=0;exitDy=0;entryX=0.5;entryY=1;entryDx=0;entryDy=0;" edge="1" parent="1" source="fMQeoemZd60hINEldidN-67" target="fMQeoemZd60hINEldidN-69">
          <mxGeometry relative="1" as="geometry" />
        </mxCell>
        <mxCell id="fMQeoemZd60hINEldidN-67" value="ПО уязвимо" style="rounded=0;whiteSpace=wrap;html=1;" vertex="1" parent="1">
          <mxGeometry x="2030" y="-130" width="120" height="60" as="geometry" />
        </mxCell>
        <mxCell id="fMQeoemZd60hINEldidN-68" value="Список защищенных программ" style="rounded=0;whiteSpace=wrap;html=1;" vertex="1" parent="1">
          <mxGeometry x="2300" y="-350" width="120" height="60" as="geometry" />
        </mxCell>
        <mxCell id="fMQeoemZd60hINEldidN-69" value="Список уязвимых программ" style="rounded=0;whiteSpace=wrap;html=1;" vertex="1" parent="1">
          <mxGeometry x="2510" y="-350" width="120" height="60" as="geometry" />
        </mxCell>
        <mxCell id="fMQeoemZd60hINEldidN-70" value="Активация ключа" style="rounded=0;whiteSpace=wrap;html=1;" vertex="1" parent="1">
          <mxGeometry x="1210" y="-540" width="120" height="60" as="geometry" />
        </mxCell>
        <mxCell id="fMQeoemZd60hINEldidN-71" value="Включение автозапуска" style="rounded=0;whiteSpace=wrap;html=1;" vertex="1" parent="1">
          <mxGeometry x="1410" y="-540" width="120" height="60" as="geometry" />
        </mxCell>
        <mxCell id="fMQeoemZd60hINEldidN-72" value="Назначение времени проверки" style="rounded=0;whiteSpace=wrap;html=1;" vertex="1" parent="1">
          <mxGeometry x="1610" y="-540" width="120" height="60" as="geometry" />
        </mxCell>
        <mxCell id="fMQeoemZd60hINEldidN-73" value="Первый запуск" style="rounded=0;whiteSpace=wrap;html=1;" vertex="1" parent="1">
          <mxGeometry x="800" y="-310" width="60" height="30" as="geometry" />
        </mxCell>
        <mxCell id="fMQeoemZd60hINEldidN-74" value="База Данных" style="rounded=0;whiteSpace=wrap;html=1;" vertex="1" parent="1">
          <mxGeometry x="1560" y="50" width="120" height="60" as="geometry" />
        </mxCell>
        <mxCell id="fMQeoemZd60hINEldidN-75" value="Результат работы правил" style="rounded=0;whiteSpace=wrap;html=1;" vertex="1" parent="1">
          <mxGeometry x="1970" y="-325" width="120" height="60" as="geometry" />
        </mxCell>
        <mxCell id="fMQeoemZd60hINEldidN-76" value="Списки" style="rounded=0;whiteSpace=wrap;html=1;" vertex="1" parent="1">
          <mxGeometry x="2260" y="-450" width="120" height="30" as="geometry" />
        </mxCell>
        <mxCell id="fMQeoemZd60hINEldidN-77" value="Настройки" style="rounded=0;whiteSpace=wrap;html=1;" vertex="1" parent="1">
          <mxGeometry x="1140" y="-600" width="90" height="30" as="geometry" />
        </mxCell>
        <mxCell id="fMQeoemZd60hINEldidN-78" style="edgeStyle=orthogonalEdgeStyle;rounded=0;orthogonalLoop=1;jettySize=auto;html=1;exitX=1;exitY=0.5;exitDx=0;exitDy=0;entryX=0.004;entryY=0.596;entryDx=0;entryDy=0;entryPerimeter=0;" edge="1" parent="1" source="fMQeoemZd60hINEldidN-37" target="fMQeoemZd60hINEldidN-2">
          <mxGeometry relative="1" as="geometry" />
        </mxCell>
      </root>
    </mxGraphModel>
  </diagram>
</mxfile>
